<svg xmlns="http://www.w3.org/2000/svg" width="26.415" height="31.442" viewBox="0 0 26.415 31.442">
  <path id="apple-icon" d="M28.244,20.244a6.551,6.551,0,0,1,3.511-5.952,7.527,7.527,0,0,0-5.944-3.129c-2.49-.2-5.215,1.451-6.213,1.451-1.054,0-3.465-1.383-5.362-1.383-3.915.061-8.076,3.121-8.076,9.349a17.5,17.5,0,0,0,1.009,5.7c.9,2.577,4.142,8.892,7.524,8.79,1.768-.042,3.019-1.255,5.321-1.255,2.233,0,3.39,1.255,5.362,1.255,3.412-.049,6.345-5.789,7.2-8.374a6.961,6.961,0,0,1-4.331-6.451ZM24.272,8.718a6.614,6.614,0,0,0,1.685-5.09,7.445,7.445,0,0,0-4.765,2.449,6.716,6.716,0,0,0-1.8,5.049,5.9,5.9,0,0,0,4.875-2.407Z" transform="translate(-6.16 -3.628)" fill="#fff"/>
</svg>
