<svg width="169" height="41" viewBox="0 0 169 41" fill="none" xmlns="http://www.w3.org/2000/svg">
<path d="M0.359038 20.8161C0.224831 27.0343 5.63785 32.4921 11.8561 32.3579C18.0296 32.4921 23.4874 27.0343 23.3979 20.8161C23.4874 14.5978 18.0296 9.14008 11.8561 9.27429C8.94828 9.27429 6.53256 10.4821 4.78787 12.4953V0.685038H0.359038V20.8161ZM4.6984 20.8161C4.6984 16.7451 7.82989 13.5242 11.8561 13.5242C15.8823 13.5242 19.0138 16.7451 19.0138 20.8161C19.0138 24.887 15.8823 28.108 11.8561 28.108C7.82989 28.108 4.6984 24.887 4.6984 20.8161ZM26.1855 34.0131C27.7512 38.263 31.2406 40.9471 35.7142 40.9471C41.3509 40.9471 45.556 36.563 45.556 30.8816V9.63217H41.1719V21.6661C41.1719 25.9607 39.2483 28.108 35.7142 28.108C32.1801 28.108 30.2564 25.8712 30.2564 21.3976V9.63217H25.8723V21.3976C25.8723 28.6896 29.7643 32.3579 35.7142 32.3579C37.9062 32.3579 39.8746 31.5974 41.1272 30.2106V31.4184C41.1272 34.5052 39.0694 36.6972 35.7142 36.6972C33.7011 36.6972 32.1801 35.8025 31.1064 34.0131H26.1855ZM68.4607 22.9634C68.4607 19.2056 66.4923 16.3873 62.7345 14.911C64.5687 13.7031 66.045 11.5558 66.045 8.11116C66.045 3.45865 62.7793 0.685038 57.3662 0.685038H48.2402V32H59.4688C64.524 32 68.4607 28.2869 68.4607 22.9634ZM57.3662 4.71125C60.2741 4.71125 61.6609 6.277 61.6609 8.73746C61.6609 9.81111 61.2582 10.7953 60.4977 11.69C59.7372 12.5847 58.8425 13.0321 57.8136 13.0321H52.6243V4.71125H57.3662ZM64.0766 22.2924C64.0766 25.5133 62.1082 27.9738 59.4241 27.9738H52.6243V17.3714H59.0662C62.153 17.3714 64.0766 19.6082 64.0766 22.2924ZM70.6901 20.8161C70.5559 27.0343 76.0137 32.4921 82.2319 32.3579C85.3187 32.3579 88.2712 30.6579 89.3449 28.4659V32H93.729V20.8161C93.8632 14.5978 88.4502 9.14008 82.2319 9.27429C76.0137 9.14008 70.5559 14.5978 70.6901 20.8161ZM89.3896 20.8161C89.3896 24.887 86.3029 28.108 82.2767 28.108C78.2505 28.108 75.0742 24.887 75.0742 20.8161C75.0742 16.7451 78.2057 13.5242 82.2767 13.5242C86.3476 13.5242 89.3896 16.7451 89.3896 20.8161ZM96.864 32H101.248V20.324C101.248 15.8952 103.038 13.7926 106.258 13.7926H106.706V9.5427H106.258C100.577 9.5427 96.864 13.1663 96.864 20.324V32ZM121.302 13.8821V9.63217H116.47V1.62449H112.086V9.63217H108.776V13.8821H112.086V21.4424C112.131 28.3764 115.71 31.9105 121.302 32.1342V27.8843C118.081 27.5712 116.47 25.5581 116.47 21.3976V13.8821H121.302ZM133.953 9.27429C127.735 9.14008 122.456 14.6426 122.59 20.8608C122.456 27.0791 127.78 32.4921 134.088 32.3579C138.561 32.3579 142.587 29.808 144.556 25.916L139.322 25.8712C137.935 27.3475 136.145 28.108 133.953 28.108C130.374 28.108 127.646 25.7817 127.288 22.4266H145.361C145.45 21.845 145.495 21.174 145.495 20.4135C145.316 13.6584 139.769 9.27429 133.953 9.27429ZM127.288 18.8477C128.138 15.6715 130.688 13.5242 134.088 13.5242C137.264 13.5242 139.948 15.761 140.798 18.8477H127.288ZM147.934 32H152.318V20.324C152.318 15.8952 154.108 13.7926 157.329 13.7926H157.776V9.5427H157.329C151.647 9.5427 147.934 13.1663 147.934 20.324V32ZM159.118 32H163.502V20.324C163.502 15.8952 165.292 13.7926 168.513 13.7926H168.96V9.5427H168.513C162.831 9.5427 159.118 13.1663 159.118 20.324V32Z" fill="black"/>
</svg>
