<svg width="31" height="31" viewBox="0 0 31 31" fill="none" xmlns="http://www.w3.org/2000/svg">
<path d="M17.0155 12.3718C16.3366 12.3718 15.8106 12.8978 15.8106 13.5472C15.8106 14.1967 16.3366 14.7227 17.0155 14.7227C17.6355 14.7227 18.1615 14.1967 18.1615 13.5472C18.1615 12.8978 17.6355 12.3718 17.0155 12.3718ZM8.7873 12.3718C8.10847 12.3718 7.58246 12.8978 7.58246 13.5472C7.58246 14.1967 8.10847 14.7227 8.7873 14.7227C9.40735 14.7227 9.93336 14.1967 9.93336 13.5472C9.93336 12.8978 9.40735 12.3718 8.7873 12.3718Z" fill="black"/>
<path d="M26.4485 10.138C25.035 8.19849 23.0602 6.90256 20.8945 6.31777V6.32071C20.392 5.76237 19.8248 5.24811 19.1901 4.78968C14.3795 1.29271 7.62654 2.35943 4.11488 7.16997C1.28498 11.0784 1.40546 16.3356 4.2912 20.0706L4.31471 23.9672C4.31471 24.0612 4.3294 24.1553 4.35878 24.2434C4.51453 24.7401 5.04349 25.0133 5.53718 24.8576L9.25748 23.6851C10.2419 24.0348 11.2587 24.2346 12.2696 24.2904L12.2549 24.3022C14.8732 26.2094 18.3055 26.7824 21.4528 25.7421L25.1878 26.9587C25.2818 26.9881 25.3788 27.0057 25.4787 27.0057C25.9989 27.0057 26.4191 26.5855 26.4191 26.0654V22.1276C29.008 18.613 29.0756 13.7554 26.4485 10.138ZM9.66889 21.5987L9.31626 21.4517L6.40701 22.3627L6.37762 19.3065L6.14253 19.042C3.65645 16.0094 3.49189 11.6396 5.81928 8.43358C8.65213 4.54871 14.0827 3.69063 17.9558 6.49409C21.8407 9.31811 22.7017 14.7399 19.8953 18.6013C17.5415 21.8308 13.3275 23.0239 9.66889 21.5987ZM24.509 21.0991L24.2739 21.393L24.3033 24.4491L21.4234 23.4794L21.0708 23.6263C19.4252 24.2375 17.6708 24.2875 16.0457 23.832L16.0398 23.8291C18.2115 23.162 20.1804 21.8102 21.5997 19.8649C23.8449 16.7705 24.2092 12.8827 22.9045 9.5679L22.9221 9.57965C23.598 10.0645 24.2181 10.6699 24.7441 11.4016C26.8775 14.3285 26.757 18.3133 24.509 21.0991Z" fill="black"/>
<path d="M12.9014 12.3718C12.2225 12.3718 11.6965 12.8978 11.6965 13.5472C11.6965 14.1967 12.2225 14.7227 12.9014 14.7227C13.5214 14.7227 14.0474 14.1967 14.0474 13.5472C14.0474 12.8978 13.5214 12.3718 12.9014 12.3718Z" fill="black"/>
</svg>
