<svg width="32" height="31" viewBox="0 0 32 31" fill="none" xmlns="http://www.w3.org/2000/svg">
<path fill-rule="evenodd" clip-rule="evenodd" d="M22.8169 14.4667C22.8169 19.069 19.0859 22.8 14.4836 22.8C9.8812 22.8 6.15024 19.069 6.15024 14.4667C6.15024 9.86429 9.8812 6.13333 14.4836 6.13333C19.0859 6.13333 22.8169 9.86429 22.8169 14.4667ZM20.7612 22.6752C19.0211 24.008 16.8448 24.8 14.4836 24.8C8.77663 24.8 4.15024 20.1736 4.15024 14.4667C4.15024 8.75972 8.77663 4.13333 14.4836 4.13333C20.1905 4.13333 24.8169 8.75972 24.8169 14.4667C24.8169 17.0918 23.838 19.4882 22.2254 21.311L26.0407 25.1262C26.4312 25.5167 26.4312 26.1499 26.0407 26.5404C25.6502 26.931 25.017 26.931 24.6265 26.5404L20.7612 22.6752Z" fill="black" fill-opacity="0.5"/>
</svg>
