<svg xmlns="http://www.w3.org/2000/svg" width="35.744" height="35.745" viewBox="0 0 35.744 35.745">
  <g id="Group_2" data-name="Group 2" transform="translate(-975.128 -522.127)">
    <path id="Path_5" data-name="Path 5" d="M102.9,41.872a1.973,1.973,0,0,0,1.972-1.973V8.1A1.972,1.972,0,0,0,102.9,6.127H71.1A1.973,1.973,0,0,0,69.128,8.1V39.9A1.973,1.973,0,0,0,71.1,41.872h31.8" transform="translate(906 516)" fill="#395185"/>
    <path id="Path_6" data-name="Path 6" d="M93.791,41.873V28.03h4.646l.7-5.394H93.791V19.191c0-1.562.434-2.626,2.674-2.626h2.857V11.739a38.205,38.205,0,0,0-4.162-.213c-4.119,0-6.938,2.514-6.938,7.131v3.978H83.562V28.03H88.22V41.873h5.571" transform="translate(906 516)" fill="#fff"/>
  </g>
</svg>
