<svg xmlns="http://www.w3.org/2000/svg" width="40" height="40" viewBox="0 0 40 40">
  <g id="Group_1" data-name="Group 1" transform="translate(-910 -520)">
    <path id="Path_1" data-name="Path 1" d="M43.611,20.083H42V20H24v8H35.3a12.009,12.009,0,1,1-3.342-12.961l5.657-5.657A19.979,19.979,0,1,0,44,24,20.136,20.136,0,0,0,43.611,20.083Z" transform="translate(906 516)" fill="#ffc107"/>
    <path id="Path_2" data-name="Path 2" d="M6.306,14.691l6.571,4.819a11.976,11.976,0,0,1,19.084-4.471l5.657-5.657A19.961,19.961,0,0,0,6.306,14.691Z" transform="translate(906 516)" fill="#ff3d00"/>
    <path id="Path_3" data-name="Path 3" d="M24,44a19.906,19.906,0,0,0,13.409-5.192l-6.19-5.238a11.969,11.969,0,0,1-18.5-5.516L6.2,33.079A19.984,19.984,0,0,0,24,44Z" transform="translate(906 516)" fill="#4caf50"/>
    <path id="Path_4" data-name="Path 4" d="M43.611,20.083H42V20H24v8H35.3a12.04,12.04,0,0,1-4.087,5.571l0,0,6.19,5.238A19.347,19.347,0,0,0,44,24,20.136,20.136,0,0,0,43.611,20.083Z" transform="translate(906 516)" fill="#1976d2"/>
  </g>
</svg>
