<svg width="31" height="31" viewBox="0 0 31 31" fill="none" xmlns="http://www.w3.org/2000/svg">
<path d="M5.01526 26.3301H6.26908V10.0304H5.01526C4.3502 10.0304 3.71237 10.2946 3.2421 10.7649C2.77183 11.2352 2.50763 11.873 2.50763 12.5381V23.8224C2.50763 24.4875 2.77183 25.1253 3.2421 25.5956C3.71237 26.0659 4.3502 26.3301 5.01526 26.3301ZM25.0763 10.0304H16.2996L17.7064 5.80758C17.8319 5.4307 17.8661 5.0294 17.8062 4.63671C17.7462 4.24403 17.5938 3.87121 17.3616 3.54895C17.1293 3.2267 16.8238 2.96423 16.4702 2.78317C16.1167 2.60211 15.7251 2.50764 15.3279 2.50754H15.0458L8.77671 9.32579V26.3301H22.5687L27.4736 15.5522L27.584 15.0457V12.5381C27.584 11.873 27.3198 11.2352 26.8495 10.7649C26.3792 10.2946 25.7414 10.0304 25.0763 10.0304V10.0304Z" fill="#0217EB"/>
</svg>
