<svg xmlns="http://www.w3.org/2000/svg" width="26.473" height="29" viewBox="0 0 26.473 29">
  <path id="playstore" d="M8.707,33.86a2.19,2.19,0,0,1-.806-.139L20.886,20.73l4.3,4.3L10.262,33.418a3.223,3.223,0,0,1-1.556.442ZM6.83,32.787a3.063,3.063,0,0,1-.381-1.564V7.514A3.434,3.434,0,0,1,6.61,6.453L19.885,19.73,6.825,32.791l0,0Zm19.637-8.478-4.581-4.577,5.052-5.05,4.487,2.52a2.54,2.54,0,0,1,1.5,2.159,2.538,2.538,0,0,1-1.5,2.16Zm-5.58-5.583L7.439,5.281A2.148,2.148,0,0,1,8.715,4.86a3.285,3.285,0,0,1,1.54.447l15.4,8.655-4.766,4.764Z" transform="translate(-6.448 -4.86)" fill="#fff"/>
</svg>
