<svg width="37" height="36" viewBox="0 0 37 36" fill="none" xmlns="http://www.w3.org/2000/svg">
<path d="M29.8259 20.8125H5.36066C5.20597 20.8125 5.07941 20.9391 5.07941 21.0938V23.2031C5.07941 23.3578 5.20597 23.4844 5.36066 23.4844H26.6372L21.5642 29.918C21.42 30.1008 21.5501 30.375 21.7857 30.375H24.3345C24.5068 30.375 24.6685 30.2977 24.7775 30.1605L30.7118 22.6336C31.2919 21.8953 30.7681 20.8125 29.8259 20.8125ZM30.6732 12.5156H9.3966L14.4696 6.08203C14.6138 5.89922 14.4837 5.625 14.2482 5.625H11.6993C11.5271 5.625 11.3653 5.70234 11.2564 5.83945L5.32199 13.3664C4.74191 14.1047 5.26574 15.1875 6.20441 15.1875H30.6732C30.8278 15.1875 30.9544 15.0609 30.9544 14.9062V12.7969C30.9544 12.6422 30.8278 12.5156 30.6732 12.5156Z" fill="black"/>
</svg>
