<svg width="31" height="31" viewBox="0 0 31 31" fill="none" xmlns="http://www.w3.org/2000/svg">
<path d="M26.6524 13.7441C27.2467 14.5214 27.2467 15.5709 26.6524 16.347C24.7804 18.7907 20.2893 23.8222 15.0458 23.8222C9.80233 23.8222 5.31116 18.7907 3.43922 16.347C3.15007 15.9748 2.9931 15.5168 2.9931 15.0455C2.9931 14.5742 3.15007 14.1163 3.43922 13.7441C5.31116 11.3004 9.80233 6.2688 15.0458 6.2688C20.2893 6.2688 24.7804 11.3004 26.6524 13.7441V13.7441Z" stroke="black" stroke-width="2.00611" stroke-linecap="round" stroke-linejoin="round"/>
<path d="M15.0458 18.8071C17.1232 18.8071 18.8073 17.123 18.8073 15.0456C18.8073 12.9682 17.1232 11.2842 15.0458 11.2842C12.9684 11.2842 11.2844 12.9682 11.2844 15.0456C11.2844 17.123 12.9684 18.8071 15.0458 18.8071Z" stroke="black" stroke-width="2.00611" stroke-linecap="round" stroke-linejoin="round"/>
</svg>
