<svg width="37" height="36" viewBox="0 0 37 36" fill="none" xmlns="http://www.w3.org/2000/svg">
<path d="M16.8517 28.9358L16.8495 28.9338C12.9568 25.404 9.84767 22.5807 7.69361 19.9472C5.55677 17.3347 4.51691 15.0923 4.51691 12.75C4.51691 8.95843 7.47533 6 11.2669 6C13.4227 6 15.5153 7.0109 16.8749 8.60751L18.0169 9.94861L19.1589 8.60751C20.5185 7.0109 22.6111 6 24.7669 6C28.5585 6 31.5169 8.95843 31.5169 12.75C31.5169 15.0923 30.477 17.3348 28.3399 19.9495C26.1858 22.5849 23.077 25.4114 19.1847 28.9484C19.1842 28.9489 19.1837 28.9494 19.1831 28.9499L18.0207 30L16.8517 28.9358Z" stroke="black" stroke-width="3"/>
</svg>
